<svg width="110" height="110" viewBox="0 0 110 110" fill="none" xmlns="http://www.w3.org/2000/svg">
<g clip-path="url(#clip0)">
<rect width="110" height="110" rx="55" fill="white"/>
<g filter="url(#filter0_d)">
<circle cx="55" cy="55" r="55" fill="url(#paint0_linear)"/>
</g>
<g filter="url(#filter1_d)">
<path d="M33.8867 47.1094L27.4805 46.6016L26.4648 55.1172L22.9102 55.2734L21.4258 34.1797L35.5664 33.75L35.4492 35.8984L28.6914 36.6797L27.7539 44.2969L33.6914 44.2188L33.8867 47.1094ZM40.6445 55.4688L39.043 39.6094L45.8789 38.5938L43.8086 55.1953L40.6445 55.4688ZM40.0195 36.0938C39.4466 35.4948 39.1602 34.7917 39.1602 33.9844C39.1602 33.151 39.4466 32.4479 40.0195 31.875C40.6185 31.3021 41.3216 31.0156 42.1289 31.0156C42.9362 31.0156 43.6263 31.3021 44.1992 31.875C44.7982 32.4479 45.0977 33.151 45.0977 33.9844C45.0977 34.7917 44.7982 35.4948 44.1992 36.0938C43.6263 36.6667 42.9362 36.9531 42.1289 36.9531C41.3216 36.9531 40.6185 36.6667 40.0195 36.0938ZM62.8711 38.2422C63.2617 38.2422 63.6654 38.3203 64.082 38.4766C65.1758 39.7786 65.918 42.0573 66.3086 45.3125C66.6992 48.5677 66.8945 51.7969 66.8945 55L61.1523 55.4688C61.1523 50.5469 60.9701 46.0807 60.6055 42.0703C57.7669 43.112 55.8789 47.487 54.9414 55.1953L51.7773 55.4688L50.1758 39.6094L57.0117 38.5547L56.2695 44.1797H56.582C57.4414 42.3307 58.4049 40.8854 59.4727 39.8438C60.5664 38.776 61.6992 38.2422 62.8711 38.2422ZM75.7227 55.7422C75.2018 55.7422 74.7721 55.651 74.4336 55.4688C73.6523 54.6615 73.0143 53.4635 72.5195 51.875C72.0508 50.2604 71.8164 48.3333 71.8164 46.0938C71.8164 43.8281 72.3112 42.1094 73.3008 40.9375C74.2904 39.7396 76.0091 39.1406 78.457 39.1406C79.9674 39.1406 81.4779 39.4401 82.9883 40.0391L82.5195 33.1641L89.3555 32.1094L87.3242 55.1953L84.1211 55.4688L83.7305 49.9609H83.457C81.8164 53.8151 79.2383 55.7422 75.7227 55.7422ZM79.707 41.0547C78.9258 41.0547 78.2487 41.1979 77.6758 41.4844C77.3893 43.0208 77.2461 45.0521 77.2461 47.5781C77.2461 50.1042 77.4674 51.9661 77.9102 53.1641C78.9518 53.0078 80.0456 52.2656 81.1914 50.9375C81.7904 50.2604 82.2852 49.2969 82.6758 48.0469C83.0924 46.7708 83.3008 45.3255 83.3008 43.7109C83.3008 43.3984 83.2747 42.8906 83.2227 42.1875C82.2591 41.4323 81.0872 41.0547 79.707 41.0547ZM56.0938 85.4688L51.5234 68.4766H51.25L47.7734 85L44.8828 85.4688L37.9688 69.7266H37.7734L37.2266 85L34.0625 85.1562L35.5469 64.1797L43.2812 63.8672L46.5234 79.1406L50.2734 63.7109L58.0078 64.1797L58.9844 85L56.0938 85.4688ZM69.0625 67.7344C74.2188 69.7917 76.7969 72.3698 76.7969 75.4688C76.7969 77.0833 76.3411 78.2422 75.4297 78.9453C74.5182 79.6484 73.0599 80 71.0547 80C69.0755 80 67.5781 79.8828 66.5625 79.6484C66.1719 80.638 65.9635 81.6797 65.9375 82.7734C66.901 82.9036 68.2422 82.9688 69.9609 82.9688C71.6797 82.9688 73.5286 82.6302 75.5078 81.9531L76.4453 85.0391C74.8828 85.5339 73.138 85.7812 71.2109 85.7812C67.7474 85.7812 65.2083 85.1432 63.5938 83.8672C63.2552 82.3568 63.0859 80.9375 63.0859 79.6094C63.0859 76.9271 63.6719 74.5052 64.8438 72.3438C66.0417 70.1562 67.4479 68.6198 69.0625 67.7344ZM67.1875 78.1641C67.4479 78.1901 68.138 78.2031 69.2578 78.2031C70.4036 78.2031 71.7057 78.0469 73.1641 77.7344C73.2161 77.3438 73.2552 76.9401 73.2812 76.5234C73.2812 75.2474 72.9167 74.0234 72.1875 72.8516C70.0521 74.2578 68.3854 76.0286 67.1875 78.1641Z" fill="black"/>
</g>
</g>
<defs>
<filter id="filter0_d" x="-6" y="-6" width="130" height="130" filterUnits="userSpaceOnUse" color-interpolation-filters="sRGB">
<feFlood flood-opacity="0" result="BackgroundImageFix"/>
<feColorMatrix in="SourceAlpha" type="matrix" values="0 0 0 0 0 0 0 0 0 0 0 0 0 0 0 0 0 0 127 0"/>
<feOffset dx="4" dy="4"/>
<feGaussianBlur stdDeviation="5"/>
<feColorMatrix type="matrix" values="0 0 0 0 0.37945 0 0 0 0 0.282085 0 0 0 0 0.282085 0 0 0 0.64 0"/>
<feBlend mode="normal" in2="BackgroundImageFix" result="effect1_dropShadow"/>
<feBlend mode="normal" in="SourceGraphic" in2="effect1_dropShadow" result="shape"/>
</filter>
<filter id="filter1_d" x="20.4258" y="31.0156" width="75.9297" height="67.7656" filterUnits="userSpaceOnUse" color-interpolation-filters="sRGB">
<feFlood flood-opacity="0" result="BackgroundImageFix"/>
<feColorMatrix in="SourceAlpha" type="matrix" values="0 0 0 0 0 0 0 0 0 0 0 0 0 0 0 0 0 0 127 0"/>
<feOffset dx="3" dy="9"/>
<feGaussianBlur stdDeviation="2"/>
<feColorMatrix type="matrix" values="0 0 0 0 0 0 0 0 0 0 0 0 0 0 0 0 0 0 0.25 0"/>
<feBlend mode="normal" in2="BackgroundImageFix" result="effect1_dropShadow"/>
<feBlend mode="normal" in="SourceGraphic" in2="effect1_dropShadow" result="shape"/>
</filter>
<linearGradient id="paint0_linear" x1="34.2222" y1="8.55555" x2="89.2222" y2="96.5556" gradientUnits="userSpaceOnUse">
<stop stop-color="#FF0000" stop-opacity="0.63"/>
<stop offset="1" stop-color="#5200FF" stop-opacity="0.64"/>
</linearGradient>
<clipPath id="clip0">
<rect width="110" height="110" rx="55" fill="white"/>
</clipPath>
</defs>
</svg>
